<mxfile host="app.diagrams.net" agent="Mozilla/5.0 (X11; Ubuntu; Linux x86_64; rv:128.0) Gecko/20100101 Firefox/128.0" version="24.7.6">
  <diagram name="Page-1" id="TjGwjuItkSkU3usu4LRW">
    <mxGraphModel dx="926" dy="563" grid="1" gridSize="10" guides="1" tooltips="1" connect="1" arrows="1" fold="1" page="1" pageScale="1" pageWidth="75" pageHeight="85" math="1" shadow="0">
      <root>
        <mxCell id="0" />
        <mxCell id="1" parent="0" />
        <mxCell id="IQn0PTWsaWLpdurC73Lp-170" value="" style="whiteSpace=wrap;html=1;aspect=fixed;fillColor=#616161;" vertex="1" parent="1">
          <mxGeometry x="90" y="5" width="340" height="340" as="geometry" />
        </mxCell>
        <mxCell id="IQn0PTWsaWLpdurC73Lp-300" value="" style="endArrow=none;html=1;rounded=0;exitX=0.051;exitY=0.064;exitDx=0;exitDy=0;exitPerimeter=0;strokeWidth=2;" edge="1" parent="1">
          <mxGeometry width="50" height="50" relative="1" as="geometry">
            <mxPoint x="317" y="82.05999999999997" as="sourcePoint" />
            <mxPoint x="299.45" y="59" as="targetPoint" />
          </mxGeometry>
        </mxCell>
        <mxCell id="IQn0PTWsaWLpdurC73Lp-301" value="" style="endArrow=none;html=1;rounded=0;exitX=0.051;exitY=0.064;exitDx=0;exitDy=0;exitPerimeter=0;strokeWidth=2;" edge="1" parent="1">
          <mxGeometry width="50" height="50" relative="1" as="geometry">
            <mxPoint x="317.55" y="163.49999999999997" as="sourcePoint" />
            <mxPoint x="300" y="140.44" as="targetPoint" />
          </mxGeometry>
        </mxCell>
        <mxCell id="IQn0PTWsaWLpdurC73Lp-302" value="" style="endArrow=none;html=1;rounded=0;exitX=0.051;exitY=0.064;exitDx=0;exitDy=0;exitPerimeter=0;strokeWidth=2;" edge="1" parent="1">
          <mxGeometry width="50" height="50" relative="1" as="geometry">
            <mxPoint x="237.55" y="163.30999999999997" as="sourcePoint" />
            <mxPoint x="220" y="140.25" as="targetPoint" />
          </mxGeometry>
        </mxCell>
        <mxCell id="IQn0PTWsaWLpdurC73Lp-303" value="" style="endArrow=none;html=1;rounded=0;exitX=0.051;exitY=0.064;exitDx=0;exitDy=0;exitPerimeter=0;strokeWidth=2;" edge="1" parent="1">
          <mxGeometry width="50" height="50" relative="1" as="geometry">
            <mxPoint x="158" y="163.30999999999997" as="sourcePoint" />
            <mxPoint x="140.45" y="140.25" as="targetPoint" />
          </mxGeometry>
        </mxCell>
        <mxCell id="IQn0PTWsaWLpdurC73Lp-304" value="" style="endArrow=none;html=1;rounded=0;exitX=0.051;exitY=0.064;exitDx=0;exitDy=0;exitPerimeter=0;strokeWidth=2;" edge="1" parent="1">
          <mxGeometry width="50" height="50" relative="1" as="geometry">
            <mxPoint x="157" y="243.30999999999997" as="sourcePoint" />
            <mxPoint x="139.45" y="220.25" as="targetPoint" />
          </mxGeometry>
        </mxCell>
        <mxCell id="IQn0PTWsaWLpdurC73Lp-305" value="" style="endArrow=none;html=1;rounded=0;exitX=0.051;exitY=0.064;exitDx=0;exitDy=0;exitPerimeter=0;strokeWidth=2;" edge="1" parent="1">
          <mxGeometry width="50" height="50" relative="1" as="geometry">
            <mxPoint x="237" y="243.30999999999997" as="sourcePoint" />
            <mxPoint x="219.45" y="220.25" as="targetPoint" />
          </mxGeometry>
        </mxCell>
        <mxCell id="IQn0PTWsaWLpdurC73Lp-306" value="" style="endArrow=none;html=1;rounded=0;exitX=0.051;exitY=0.064;exitDx=0;exitDy=0;exitPerimeter=0;strokeWidth=2;" edge="1" parent="1">
          <mxGeometry width="50" height="50" relative="1" as="geometry">
            <mxPoint x="317" y="243.30999999999997" as="sourcePoint" />
            <mxPoint x="299.45" y="220.25" as="targetPoint" />
          </mxGeometry>
        </mxCell>
        <mxCell id="IQn0PTWsaWLpdurC73Lp-299" value="" style="endArrow=none;html=1;rounded=0;exitX=0.051;exitY=0.064;exitDx=0;exitDy=0;exitPerimeter=0;strokeWidth=2;" edge="1" parent="1">
          <mxGeometry width="50" height="50" relative="1" as="geometry">
            <mxPoint x="237.55" y="82.05999999999997" as="sourcePoint" />
            <mxPoint x="220" y="59" as="targetPoint" />
          </mxGeometry>
        </mxCell>
        <mxCell id="IQn0PTWsaWLpdurC73Lp-298" value="" style="endArrow=none;html=1;rounded=0;exitX=0.044;exitY=0.05;exitDx=0;exitDy=0;exitPerimeter=0;strokeWidth=2;" edge="1" parent="1" source="IQn0PTWsaWLpdurC73Lp-150">
          <mxGeometry width="50" height="50" relative="1" as="geometry">
            <mxPoint x="210" y="80" as="sourcePoint" />
            <mxPoint x="140" y="60" as="targetPoint" />
          </mxGeometry>
        </mxCell>
        <mxCell id="IQn0PTWsaWLpdurC73Lp-206" value="" style="shape=link;html=1;rounded=0;exitX=1;exitY=0.5;exitDx=0;exitDy=0;entryX=0;entryY=0.5;entryDx=0;entryDy=0;strokeWidth=2;" edge="1" parent="1" target="IQn0PTWsaWLpdurC73Lp-205">
          <mxGeometry width="100" relative="1" as="geometry">
            <mxPoint x="150.0000000000001" y="299.5" as="sourcePoint" />
            <mxPoint x="410" y="302" as="targetPoint" />
          </mxGeometry>
        </mxCell>
        <mxCell id="IQn0PTWsaWLpdurC73Lp-208" value="" style="shape=link;html=1;rounded=0;exitX=1;exitY=0.5;exitDx=0;exitDy=0;entryX=0;entryY=0.5;entryDx=0;entryDy=0;strokeWidth=2;" edge="1" parent="1" source="IQn0PTWsaWLpdurC73Lp-205" target="IQn0PTWsaWLpdurC73Lp-207">
          <mxGeometry width="100" relative="1" as="geometry">
            <mxPoint x="235" y="300" as="sourcePoint" />
            <mxPoint x="410" y="302" as="targetPoint" />
          </mxGeometry>
        </mxCell>
        <mxCell id="IQn0PTWsaWLpdurC73Lp-199" value="" style="shape=link;html=1;rounded=0;exitX=1;exitY=0.5;exitDx=0;exitDy=0;entryX=0;entryY=0.5;entryDx=0;entryDy=0;strokeWidth=2;" edge="1" parent="1" source="IQn0PTWsaWLpdurC73Lp-101" target="IQn0PTWsaWLpdurC73Lp-97">
          <mxGeometry width="100" relative="1" as="geometry">
            <mxPoint x="230" y="222" as="sourcePoint" />
            <mxPoint x="410" y="222" as="targetPoint" />
          </mxGeometry>
        </mxCell>
        <mxCell id="IQn0PTWsaWLpdurC73Lp-4" value="$$\text{IOE}$$" style="rounded=1;whiteSpace=wrap;html=1;fillColor=#E6E6E6;strokeWidth=2;" vertex="1" parent="1">
          <mxGeometry x="70" y="41" width="40" height="39" as="geometry" />
        </mxCell>
        <mxCell id="IQn0PTWsaWLpdurC73Lp-10" value="$$\text{IOE}$$" style="rounded=1;whiteSpace=wrap;html=1;fillColor=#E6E6E6;strokeWidth=2;" vertex="1" parent="1">
          <mxGeometry x="70" y="120" width="40" height="39" as="geometry" />
        </mxCell>
        <mxCell id="IQn0PTWsaWLpdurC73Lp-11" value="$$\text{IOE}$$" style="rounded=1;whiteSpace=wrap;html=1;fillColor=#E6E6E6;strokeWidth=2;" vertex="1" parent="1">
          <mxGeometry x="70" y="202" width="40" height="39" as="geometry" />
        </mxCell>
        <mxCell id="IQn0PTWsaWLpdurC73Lp-12" value="$$\text{IOE}$$" style="rounded=1;whiteSpace=wrap;html=1;fillColor=#E6E6E6;strokeWidth=2;" vertex="1" parent="1">
          <mxGeometry x="70" y="280" width="40" height="39" as="geometry" />
        </mxCell>
        <mxCell id="IQn0PTWsaWLpdurC73Lp-14" value="$$\text{IOE}$$" style="rounded=1;whiteSpace=wrap;html=1;fillColor=#E6E6E6;strokeWidth=2;" vertex="1" parent="1">
          <mxGeometry x="410" y="41" width="40" height="39" as="geometry" />
        </mxCell>
        <mxCell id="IQn0PTWsaWLpdurC73Lp-15" value="$$\text{IOE}$$" style="rounded=1;whiteSpace=wrap;html=1;fillColor=#E6E6E6;strokeWidth=2;" vertex="1" parent="1">
          <mxGeometry x="410" y="120" width="40" height="39" as="geometry" />
        </mxCell>
        <mxCell id="IQn0PTWsaWLpdurC73Lp-16" value="$$\text{IOE}$$" style="rounded=1;whiteSpace=wrap;html=1;fillColor=#E6E6E6;strokeWidth=2;" vertex="1" parent="1">
          <mxGeometry x="410" y="202" width="40" height="39" as="geometry" />
        </mxCell>
        <mxCell id="IQn0PTWsaWLpdurC73Lp-17" value="$$\text{IOE}$$" style="rounded=1;whiteSpace=wrap;html=1;fillColor=#E6E6E6;strokeWidth=2;" vertex="1" parent="1">
          <mxGeometry x="410" y="280" width="40" height="39" as="geometry" />
        </mxCell>
        <mxCell id="IQn0PTWsaWLpdurC73Lp-20" value="$$\text{IOE}$$" style="rounded=1;whiteSpace=wrap;html=1;fillColor=#E6E6E6;strokeWidth=2;" vertex="1" parent="1">
          <mxGeometry x="120" y="330" width="40" height="39" as="geometry" />
        </mxCell>
        <mxCell id="IQn0PTWsaWLpdurC73Lp-21" value="$$\text{IOE}$$" style="rounded=1;whiteSpace=wrap;html=1;fillColor=#E6E6E6;strokeWidth=2;" vertex="1" parent="1">
          <mxGeometry x="201" y="330" width="40" height="39" as="geometry" />
        </mxCell>
        <mxCell id="IQn0PTWsaWLpdurC73Lp-22" value="$$\text{IOE}$$" style="rounded=1;whiteSpace=wrap;html=1;fillColor=#E6E6E6;strokeWidth=2;" vertex="1" parent="1">
          <mxGeometry x="281" y="330" width="40" height="39" as="geometry" />
        </mxCell>
        <mxCell id="IQn0PTWsaWLpdurC73Lp-23" value="$$\text{IOE}$$" style="rounded=1;whiteSpace=wrap;html=1;fillColor=#E6E6E6;strokeWidth=2;" vertex="1" parent="1">
          <mxGeometry x="361" y="330" width="40" height="39" as="geometry" />
        </mxCell>
        <mxCell id="IQn0PTWsaWLpdurC73Lp-25" value="$$\text{IOE}$$" style="rounded=1;whiteSpace=wrap;html=1;fillColor=#E6E6E6;strokeWidth=2;" vertex="1" parent="1">
          <mxGeometry x="120" y="-10" width="40" height="39" as="geometry" />
        </mxCell>
        <mxCell id="IQn0PTWsaWLpdurC73Lp-26" value="$$\text{IOE}$$" style="rounded=1;whiteSpace=wrap;html=1;fillColor=#E6E6E6;strokeWidth=2;" vertex="1" parent="1">
          <mxGeometry x="200" y="-10" width="40" height="39" as="geometry" />
        </mxCell>
        <mxCell id="IQn0PTWsaWLpdurC73Lp-27" value="$$\text{IOE}$$" style="rounded=1;whiteSpace=wrap;html=1;fillColor=#E6E6E6;strokeWidth=2;" vertex="1" parent="1">
          <mxGeometry x="280" y="-10" width="40" height="39" as="geometry" />
        </mxCell>
        <mxCell id="IQn0PTWsaWLpdurC73Lp-28" value="$$\text{IOE}$$" style="rounded=1;whiteSpace=wrap;html=1;fillColor=#E6E6E6;strokeWidth=2;" vertex="1" parent="1">
          <mxGeometry x="360" y="-10" width="40" height="39" as="geometry" />
        </mxCell>
        <mxCell id="IQn0PTWsaWLpdurC73Lp-60" value="" style="shape=link;html=1;rounded=0;exitX=1;exitY=0.5;exitDx=0;exitDy=0;entryX=0;entryY=0.5;entryDx=0;entryDy=0;strokeWidth=2;" edge="1" parent="1" target="IQn0PTWsaWLpdurC73Lp-14">
          <mxGeometry width="100" relative="1" as="geometry">
            <mxPoint x="390" y="60.5" as="sourcePoint" />
            <mxPoint x="390" y="220" as="targetPoint" />
          </mxGeometry>
        </mxCell>
        <mxCell id="IQn0PTWsaWLpdurC73Lp-61" value="" style="shape=link;html=1;rounded=0;exitX=1;exitY=0.5;exitDx=0;exitDy=0;entryX=0;entryY=0.5;entryDx=0;entryDy=0;strokeWidth=2;" edge="1" parent="1" target="IQn0PTWsaWLpdurC73Lp-15">
          <mxGeometry width="100" relative="1" as="geometry">
            <mxPoint x="389.9999999999999" y="139.5" as="sourcePoint" />
            <mxPoint x="390" y="220" as="targetPoint" />
          </mxGeometry>
        </mxCell>
        <mxCell id="IQn0PTWsaWLpdurC73Lp-62" value="" style="shape=link;html=1;rounded=0;exitX=1;exitY=0.5;exitDx=0;exitDy=0;entryX=0;entryY=0.5;entryDx=0;entryDy=0;strokeWidth=2;" edge="1" parent="1" source="IQn0PTWsaWLpdurC73Lp-97" target="IQn0PTWsaWLpdurC73Lp-16">
          <mxGeometry width="100" relative="1" as="geometry">
            <mxPoint x="290" y="220" as="sourcePoint" />
            <mxPoint x="390" y="220" as="targetPoint" />
          </mxGeometry>
        </mxCell>
        <mxCell id="IQn0PTWsaWLpdurC73Lp-63" value="" style="shape=link;html=1;rounded=0;exitX=1;exitY=0.5;exitDx=0;exitDy=0;entryX=0;entryY=0.5;entryDx=0;entryDy=0;strokeWidth=2;" edge="1" parent="1" source="IQn0PTWsaWLpdurC73Lp-207" target="IQn0PTWsaWLpdurC73Lp-17">
          <mxGeometry width="100" relative="1" as="geometry">
            <mxPoint x="150.0000000000001" y="299.5" as="sourcePoint" />
            <mxPoint x="390" y="220" as="targetPoint" />
          </mxGeometry>
        </mxCell>
        <mxCell id="IQn0PTWsaWLpdurC73Lp-84" value="" style="shape=link;html=1;rounded=0;exitX=0.5;exitY=1;exitDx=0;exitDy=0;entryX=0.5;entryY=0;entryDx=0;entryDy=0;endSize=6;strokeWidth=2;" edge="1" parent="1" source="IQn0PTWsaWLpdurC73Lp-101">
          <mxGeometry width="100" relative="1" as="geometry">
            <mxPoint x="220" y="9" as="sourcePoint" />
            <mxPoint x="220.0000000000001" y="289.5" as="targetPoint" />
          </mxGeometry>
        </mxCell>
        <mxCell id="IQn0PTWsaWLpdurC73Lp-86" value="" style="shape=link;html=1;rounded=0;exitX=0.5;exitY=1;exitDx=0;exitDy=0;entryX=0.5;entryY=0;entryDx=0;entryDy=0;strokeWidth=2;" edge="1" parent="1" source="IQn0PTWsaWLpdurC73Lp-99">
          <mxGeometry width="100" relative="1" as="geometry">
            <mxPoint x="300" y="9" as="sourcePoint" />
            <mxPoint x="299.9999999999999" y="289.5" as="targetPoint" />
          </mxGeometry>
        </mxCell>
        <mxCell id="IQn0PTWsaWLpdurC73Lp-88" value="" style="shape=link;html=1;rounded=0;exitX=0.5;exitY=1;exitDx=0;exitDy=0;entryX=0.5;entryY=0;entryDx=0;entryDy=0;strokeWidth=2;" edge="1" parent="1" source="IQn0PTWsaWLpdurC73Lp-97">
          <mxGeometry width="100" relative="1" as="geometry">
            <mxPoint x="380" y="9" as="sourcePoint" />
            <mxPoint x="379.9999999999999" y="289.5" as="targetPoint" />
          </mxGeometry>
        </mxCell>
        <mxCell id="IQn0PTWsaWLpdurC73Lp-98" value="" style="shape=link;html=1;rounded=0;exitX=0.5;exitY=1;exitDx=0;exitDy=0;entryX=0.5;entryY=0;entryDx=0;entryDy=0;strokeWidth=2;" edge="1" parent="1" target="IQn0PTWsaWLpdurC73Lp-97">
          <mxGeometry width="100" relative="1" as="geometry">
            <mxPoint x="379.9999999999999" y="149.5" as="sourcePoint" />
            <mxPoint x="380" y="290" as="targetPoint" />
          </mxGeometry>
        </mxCell>
        <mxCell id="IQn0PTWsaWLpdurC73Lp-100" value="" style="shape=link;html=1;rounded=0;exitX=0.5;exitY=1;exitDx=0;exitDy=0;entryX=0.5;entryY=0;entryDx=0;entryDy=0;strokeWidth=2;" edge="1" parent="1" target="IQn0PTWsaWLpdurC73Lp-99">
          <mxGeometry width="100" relative="1" as="geometry">
            <mxPoint x="299.9999999999999" y="149.5" as="sourcePoint" />
            <mxPoint x="300" y="290" as="targetPoint" />
          </mxGeometry>
        </mxCell>
        <mxCell id="IQn0PTWsaWLpdurC73Lp-99" value="" style="rounded=0;whiteSpace=wrap;html=1;strokeWidth=2;" vertex="1" parent="1">
          <mxGeometry x="285" y="207.25" width="30" height="28.5" as="geometry" />
        </mxCell>
        <mxCell id="IQn0PTWsaWLpdurC73Lp-102" value="" style="shape=link;html=1;rounded=0;exitX=1;exitY=0.5;exitDx=0;exitDy=0;entryX=0;entryY=0.5;entryDx=0;entryDy=0;strokeWidth=2;" edge="1" parent="1" source="IQn0PTWsaWLpdurC73Lp-103" target="IQn0PTWsaWLpdurC73Lp-101">
          <mxGeometry width="100" relative="1" as="geometry">
            <mxPoint y="219" as="sourcePoint" />
            <mxPoint x="440" y="222" as="targetPoint" />
          </mxGeometry>
        </mxCell>
        <mxCell id="IQn0PTWsaWLpdurC73Lp-106" value="" style="shape=link;html=1;rounded=0;exitX=0.5;exitY=1;exitDx=0;exitDy=0;entryX=0.5;entryY=0;entryDx=0;entryDy=0;strokeWidth=2;" edge="1" parent="1">
          <mxGeometry width="100" relative="1" as="geometry">
            <mxPoint x="140.0000000000001" y="70.5" as="sourcePoint" />
            <mxPoint x="140.0000000000001" y="129.5" as="targetPoint" />
          </mxGeometry>
        </mxCell>
        <mxCell id="IQn0PTWsaWLpdurC73Lp-108" value="" style="shape=link;html=1;rounded=0;exitX=0.5;exitY=1;exitDx=0;exitDy=0;entryX=0.5;entryY=0;entryDx=0;entryDy=0;strokeWidth=2;" edge="1" parent="1">
          <mxGeometry width="100" relative="1" as="geometry">
            <mxPoint x="220" y="70.5" as="sourcePoint" />
            <mxPoint x="220.0000000000001" y="129.5" as="targetPoint" />
          </mxGeometry>
        </mxCell>
        <mxCell id="IQn0PTWsaWLpdurC73Lp-110" value="" style="shape=link;html=1;rounded=0;exitX=0.5;exitY=1;exitDx=0;exitDy=0;entryX=0.5;entryY=0;entryDx=0;entryDy=0;strokeWidth=2;" edge="1" parent="1">
          <mxGeometry width="100" relative="1" as="geometry">
            <mxPoint x="300" y="70.5" as="sourcePoint" />
            <mxPoint x="299.9999999999999" y="129.5" as="targetPoint" />
          </mxGeometry>
        </mxCell>
        <mxCell id="IQn0PTWsaWLpdurC73Lp-112" value="" style="shape=link;html=1;rounded=0;exitX=0.5;exitY=1;exitDx=0;exitDy=0;entryX=0.5;entryY=0;entryDx=0;entryDy=0;strokeWidth=2;" edge="1" parent="1">
          <mxGeometry width="100" relative="1" as="geometry">
            <mxPoint x="380" y="70.5" as="sourcePoint" />
            <mxPoint x="379.9999999999999" y="129.5" as="targetPoint" />
          </mxGeometry>
        </mxCell>
        <mxCell id="IQn0PTWsaWLpdurC73Lp-114" value="" style="shape=link;html=1;rounded=0;exitX=0.5;exitY=1;exitDx=0;exitDy=0;entryX=0.5;entryY=0;entryDx=0;entryDy=0;strokeWidth=2;" edge="1" parent="1" source="IQn0PTWsaWLpdurC73Lp-27">
          <mxGeometry width="100" relative="1" as="geometry">
            <mxPoint x="300" y="9" as="sourcePoint" />
            <mxPoint x="300" y="50.5" as="targetPoint" />
          </mxGeometry>
        </mxCell>
        <mxCell id="IQn0PTWsaWLpdurC73Lp-116" value="" style="shape=link;html=1;rounded=0;exitX=0.5;exitY=1;exitDx=0;exitDy=0;entryX=0.5;entryY=0;entryDx=0;entryDy=0;strokeWidth=2;" edge="1" parent="1" source="IQn0PTWsaWLpdurC73Lp-28">
          <mxGeometry width="100" relative="1" as="geometry">
            <mxPoint x="380" y="9" as="sourcePoint" />
            <mxPoint x="380" y="50.5" as="targetPoint" />
          </mxGeometry>
        </mxCell>
        <mxCell id="IQn0PTWsaWLpdurC73Lp-118" value="" style="shape=link;html=1;rounded=0;exitX=0.5;exitY=1;exitDx=0;exitDy=0;entryX=0.5;entryY=0;entryDx=0;entryDy=0;strokeWidth=2;" edge="1" parent="1" source="IQn0PTWsaWLpdurC73Lp-26">
          <mxGeometry width="100" relative="1" as="geometry">
            <mxPoint x="220" y="9" as="sourcePoint" />
            <mxPoint x="220" y="50.5" as="targetPoint" />
          </mxGeometry>
        </mxCell>
        <mxCell id="IQn0PTWsaWLpdurC73Lp-120" value="" style="shape=link;html=1;rounded=0;exitX=0.5;exitY=1;exitDx=0;exitDy=0;entryX=0.5;entryY=0;entryDx=0;entryDy=0;strokeWidth=2;" edge="1" parent="1" source="IQn0PTWsaWLpdurC73Lp-25">
          <mxGeometry width="100" relative="1" as="geometry">
            <mxPoint x="140" y="9" as="sourcePoint" />
            <mxPoint x="140.0000000000001" y="50.5" as="targetPoint" />
          </mxGeometry>
        </mxCell>
        <mxCell id="IQn0PTWsaWLpdurC73Lp-127" value="" style="shape=link;html=1;rounded=0;exitX=1;exitY=0.5;exitDx=0;exitDy=0;entryX=0;entryY=0.5;entryDx=0;entryDy=0;strokeWidth=2;" edge="1" parent="1">
          <mxGeometry width="100" relative="1" as="geometry">
            <mxPoint x="150.0000000000001" y="60.5" as="sourcePoint" />
            <mxPoint x="210" y="60.5" as="targetPoint" />
          </mxGeometry>
        </mxCell>
        <mxCell id="IQn0PTWsaWLpdurC73Lp-128" value="" style="shape=link;html=1;rounded=0;exitX=1;exitY=0.5;exitDx=0;exitDy=0;entryX=0;entryY=0.5;entryDx=0;entryDy=0;strokeWidth=2;" edge="1" parent="1">
          <mxGeometry width="100" relative="1" as="geometry">
            <mxPoint x="230" y="60.5" as="sourcePoint" />
            <mxPoint x="290" y="60.5" as="targetPoint" />
          </mxGeometry>
        </mxCell>
        <mxCell id="IQn0PTWsaWLpdurC73Lp-129" value="" style="shape=link;html=1;rounded=0;exitX=1;exitY=0.5;exitDx=0;exitDy=0;entryX=0;entryY=0.5;entryDx=0;entryDy=0;strokeWidth=2;" edge="1" parent="1">
          <mxGeometry width="100" relative="1" as="geometry">
            <mxPoint x="310" y="60.5" as="sourcePoint" />
            <mxPoint x="370" y="60.5" as="targetPoint" />
          </mxGeometry>
        </mxCell>
        <mxCell id="IQn0PTWsaWLpdurC73Lp-130" value="" style="shape=link;html=1;rounded=0;exitX=0.5;exitY=1;exitDx=0;exitDy=0;entryX=0.5;entryY=0;entryDx=0;entryDy=0;strokeWidth=2;" edge="1" parent="1" target="IQn0PTWsaWLpdurC73Lp-103">
          <mxGeometry width="100" relative="1" as="geometry">
            <mxPoint x="140.0000000000001" y="149.5" as="sourcePoint" />
            <mxPoint x="140" y="425" as="targetPoint" />
          </mxGeometry>
        </mxCell>
        <mxCell id="IQn0PTWsaWLpdurC73Lp-103" value="" style="rounded=0;whiteSpace=wrap;html=1;strokeWidth=2;" vertex="1" parent="1">
          <mxGeometry x="125" y="207.25" width="30" height="28.5" as="geometry" />
        </mxCell>
        <mxCell id="IQn0PTWsaWLpdurC73Lp-131" value="" style="shape=link;html=1;rounded=0;exitX=0.5;exitY=1;exitDx=0;exitDy=0;entryX=0.5;entryY=0;entryDx=0;entryDy=0;strokeWidth=2;" edge="1" parent="1" source="IQn0PTWsaWLpdurC73Lp-103">
          <mxGeometry width="100" relative="1" as="geometry">
            <mxPoint x="140" y="232" as="sourcePoint" />
            <mxPoint x="140.0000000000001" y="289.5" as="targetPoint" />
          </mxGeometry>
        </mxCell>
        <mxCell id="IQn0PTWsaWLpdurC73Lp-136" value="" style="shape=link;html=1;rounded=0;exitX=1;exitY=0.5;exitDx=0;exitDy=0;entryX=0;entryY=0.5;entryDx=0;entryDy=0;strokeWidth=2;" edge="1" parent="1">
          <mxGeometry width="100" relative="1" as="geometry">
            <mxPoint x="150.0000000000001" y="139.5" as="sourcePoint" />
            <mxPoint x="210.0000000000001" y="139.5" as="targetPoint" />
          </mxGeometry>
        </mxCell>
        <mxCell id="IQn0PTWsaWLpdurC73Lp-137" value="" style="shape=link;html=1;rounded=0;exitX=1;exitY=0.5;exitDx=0;exitDy=0;entryX=0;entryY=0.5;entryDx=0;entryDy=0;strokeWidth=2;" edge="1" parent="1">
          <mxGeometry width="100" relative="1" as="geometry">
            <mxPoint x="230.0000000000001" y="139.5" as="sourcePoint" />
            <mxPoint x="289.9999999999999" y="139.5" as="targetPoint" />
          </mxGeometry>
        </mxCell>
        <mxCell id="IQn0PTWsaWLpdurC73Lp-138" value="" style="shape=link;html=1;rounded=0;exitX=1;exitY=0.5;exitDx=0;exitDy=0;entryX=0;entryY=0.5;entryDx=0;entryDy=0;strokeWidth=2;" edge="1" parent="1">
          <mxGeometry width="100" relative="1" as="geometry">
            <mxPoint x="309.9999999999999" y="139.5" as="sourcePoint" />
            <mxPoint x="369.9999999999999" y="139.5" as="targetPoint" />
          </mxGeometry>
        </mxCell>
        <mxCell id="IQn0PTWsaWLpdurC73Lp-150" value="$$\text{LE}$$" style="rounded=1;whiteSpace=wrap;html=1;fillColor=#E6E6E6;strokeWidth=2;" vertex="1" parent="1">
          <mxGeometry x="155" y="80.5" width="50" height="40" as="geometry" />
        </mxCell>
        <mxCell id="IQn0PTWsaWLpdurC73Lp-173" value="$$\text{LE}$$" style="rounded=1;whiteSpace=wrap;html=1;fillColor=#E6E6E6;strokeWidth=2;" vertex="1" parent="1">
          <mxGeometry x="315" y="80.5" width="50" height="40" as="geometry" />
        </mxCell>
        <mxCell id="IQn0PTWsaWLpdurC73Lp-174" value="$$\text{LE}$$" style="rounded=1;whiteSpace=wrap;html=1;fillColor=#E6E6E6;strokeWidth=2;" vertex="1" parent="1">
          <mxGeometry x="235" y="80.5" width="50" height="40" as="geometry" />
        </mxCell>
        <mxCell id="IQn0PTWsaWLpdurC73Lp-175" value="$$\text{LE}$$" style="rounded=1;whiteSpace=wrap;html=1;fillColor=#E6E6E6;strokeWidth=2;" vertex="1" parent="1">
          <mxGeometry x="156" y="162" width="50" height="40" as="geometry" />
        </mxCell>
        <mxCell id="IQn0PTWsaWLpdurC73Lp-177" value="$$\text{LE}$$" style="rounded=1;whiteSpace=wrap;html=1;fillColor=#E6E6E6;strokeWidth=2;" vertex="1" parent="1">
          <mxGeometry x="316" y="162" width="50" height="40" as="geometry" />
        </mxCell>
        <mxCell id="IQn0PTWsaWLpdurC73Lp-178" value="$$\text{LE}$$" style="rounded=1;whiteSpace=wrap;html=1;fillColor=#E6E6E6;strokeWidth=2;" vertex="1" parent="1">
          <mxGeometry x="236" y="162" width="50" height="40" as="geometry" />
        </mxCell>
        <mxCell id="IQn0PTWsaWLpdurC73Lp-179" value="$$\text{LE}$$" style="rounded=1;whiteSpace=wrap;html=1;fillColor=#E6E6E6;strokeWidth=2;" vertex="1" parent="1">
          <mxGeometry x="156" y="241" width="50" height="40" as="geometry" />
        </mxCell>
        <mxCell id="IQn0PTWsaWLpdurC73Lp-181" value="$$\text{LE}$$" style="rounded=1;whiteSpace=wrap;html=1;fillColor=#E6E6E6;strokeWidth=2;" vertex="1" parent="1">
          <mxGeometry x="316" y="241" width="50" height="40" as="geometry" />
        </mxCell>
        <mxCell id="IQn0PTWsaWLpdurC73Lp-182" value="$$\text{LE}$$" style="rounded=1;whiteSpace=wrap;html=1;fillColor=#E6E6E6;strokeWidth=2;" vertex="1" parent="1">
          <mxGeometry x="236" y="241" width="50" height="40" as="geometry" />
        </mxCell>
        <mxCell id="IQn0PTWsaWLpdurC73Lp-197" value="" style="endArrow=none;html=1;rounded=0;strokeWidth=2;" edge="1" parent="1">
          <mxGeometry width="50" height="50" relative="1" as="geometry">
            <mxPoint x="375" y="226.5" as="sourcePoint" />
            <mxPoint x="385" y="216.5" as="targetPoint" />
          </mxGeometry>
        </mxCell>
        <mxCell id="IQn0PTWsaWLpdurC73Lp-97" value="" style="rounded=0;whiteSpace=wrap;html=1;strokeWidth=2;" vertex="1" parent="1">
          <mxGeometry x="365" y="207.25" width="30" height="28.5" as="geometry" />
        </mxCell>
        <mxCell id="IQn0PTWsaWLpdurC73Lp-200" value="" style="shape=link;html=1;rounded=0;exitX=0.5;exitY=1;exitDx=0;exitDy=0;entryX=0.5;entryY=0;entryDx=0;entryDy=0;endSize=6;strokeWidth=2;" edge="1" parent="1" target="IQn0PTWsaWLpdurC73Lp-101">
          <mxGeometry width="100" relative="1" as="geometry">
            <mxPoint x="220.0000000000001" y="149.5" as="sourcePoint" />
            <mxPoint x="220" y="290" as="targetPoint" />
          </mxGeometry>
        </mxCell>
        <mxCell id="IQn0PTWsaWLpdurC73Lp-101" value="" style="rounded=0;whiteSpace=wrap;html=1;strokeWidth=2;" vertex="1" parent="1">
          <mxGeometry x="205" y="207.25" width="30" height="28.5" as="geometry" />
        </mxCell>
        <mxCell id="IQn0PTWsaWLpdurC73Lp-201" value="" style="rounded=0;whiteSpace=wrap;html=1;strokeWidth=2;" vertex="1" parent="1">
          <mxGeometry x="125" y="125.25" width="30" height="28.5" as="geometry" />
        </mxCell>
        <mxCell id="IQn0PTWsaWLpdurC73Lp-202" value="" style="rounded=0;whiteSpace=wrap;html=1;strokeWidth=2;" vertex="1" parent="1">
          <mxGeometry x="125" y="46.25" width="30" height="28.5" as="geometry" />
        </mxCell>
        <mxCell id="IQn0PTWsaWLpdurC73Lp-203" value="" style="rounded=0;whiteSpace=wrap;html=1;strokeWidth=2;" vertex="1" parent="1">
          <mxGeometry x="125" y="285.25" width="30" height="28.5" as="geometry" />
        </mxCell>
        <mxCell id="IQn0PTWsaWLpdurC73Lp-204" value="" style="rounded=0;whiteSpace=wrap;html=1;strokeWidth=2;" vertex="1" parent="1">
          <mxGeometry x="285" y="285.25" width="30" height="28.5" as="geometry" />
        </mxCell>
        <mxCell id="IQn0PTWsaWLpdurC73Lp-205" value="" style="rounded=0;whiteSpace=wrap;html=1;strokeWidth=2;" vertex="1" parent="1">
          <mxGeometry x="205" y="285.25" width="30" height="28.5" as="geometry" />
        </mxCell>
        <mxCell id="IQn0PTWsaWLpdurC73Lp-207" value="" style="rounded=0;whiteSpace=wrap;html=1;strokeWidth=2;" vertex="1" parent="1">
          <mxGeometry x="365" y="285.25" width="30" height="28.5" as="geometry" />
        </mxCell>
        <mxCell id="IQn0PTWsaWLpdurC73Lp-209" value="" style="rounded=0;whiteSpace=wrap;html=1;strokeWidth=2;" vertex="1" parent="1">
          <mxGeometry x="205" y="125.25" width="30" height="28.5" as="geometry" />
        </mxCell>
        <mxCell id="IQn0PTWsaWLpdurC73Lp-210" value="" style="rounded=0;whiteSpace=wrap;html=1;strokeWidth=2;" vertex="1" parent="1">
          <mxGeometry x="285" y="125.25" width="30" height="28.5" as="geometry" />
        </mxCell>
        <mxCell id="IQn0PTWsaWLpdurC73Lp-211" value="" style="rounded=0;whiteSpace=wrap;html=1;strokeWidth=2;" vertex="1" parent="1">
          <mxGeometry x="365" y="125.25" width="30" height="28.5" as="geometry" />
        </mxCell>
        <mxCell id="IQn0PTWsaWLpdurC73Lp-212" value="" style="rounded=0;whiteSpace=wrap;html=1;strokeWidth=2;" vertex="1" parent="1">
          <mxGeometry x="206" y="46.25" width="30" height="28.5" as="geometry" />
        </mxCell>
        <mxCell id="IQn0PTWsaWLpdurC73Lp-213" value="" style="rounded=0;whiteSpace=wrap;html=1;strokeWidth=2;" vertex="1" parent="1">
          <mxGeometry x="285" y="46.25" width="30" height="28.5" as="geometry" />
        </mxCell>
        <mxCell id="IQn0PTWsaWLpdurC73Lp-214" value="" style="rounded=0;whiteSpace=wrap;html=1;strokeWidth=2;" vertex="1" parent="1">
          <mxGeometry x="365" y="46.25" width="30" height="28.5" as="geometry" />
        </mxCell>
        <mxCell id="IQn0PTWsaWLpdurC73Lp-225" value="" style="group;strokeWidth=2;" vertex="1" connectable="0" parent="1">
          <mxGeometry x="124" y="54.99999999999999" width="30.5" height="8.25" as="geometry" />
        </mxCell>
        <mxCell id="IQn0PTWsaWLpdurC73Lp-226" value="" style="endArrow=none;html=1;rounded=0;strokeWidth=2;" edge="1" parent="IQn0PTWsaWLpdurC73Lp-225">
          <mxGeometry width="50" height="50" relative="1" as="geometry">
            <mxPoint x="10" y="8.25" as="sourcePoint" />
            <mxPoint x="20" as="targetPoint" />
          </mxGeometry>
        </mxCell>
        <mxCell id="IQn0PTWsaWLpdurC73Lp-227" value="" style="endArrow=none;html=1;rounded=0;strokeWidth=2;" edge="1" parent="IQn0PTWsaWLpdurC73Lp-225">
          <mxGeometry width="50" height="50" relative="1" as="geometry">
            <mxPoint y="8" as="sourcePoint" />
            <mxPoint x="11" y="8" as="targetPoint" />
          </mxGeometry>
        </mxCell>
        <mxCell id="IQn0PTWsaWLpdurC73Lp-228" value="" style="endArrow=none;html=1;rounded=0;strokeWidth=2;" edge="1" parent="IQn0PTWsaWLpdurC73Lp-225">
          <mxGeometry width="50" height="50" relative="1" as="geometry">
            <mxPoint x="19.5" y="8" as="sourcePoint" />
            <mxPoint x="30.5" y="8" as="targetPoint" />
          </mxGeometry>
        </mxCell>
        <mxCell id="IQn0PTWsaWLpdurC73Lp-229" value="" style="group;strokeWidth=2;" vertex="1" connectable="0" parent="1">
          <mxGeometry x="205" y="55" width="30.5" height="8.25" as="geometry" />
        </mxCell>
        <mxCell id="IQn0PTWsaWLpdurC73Lp-230" value="" style="endArrow=none;html=1;rounded=0;strokeWidth=2;" edge="1" parent="IQn0PTWsaWLpdurC73Lp-229">
          <mxGeometry width="50" height="50" relative="1" as="geometry">
            <mxPoint x="10" y="8.25" as="sourcePoint" />
            <mxPoint x="20" as="targetPoint" />
          </mxGeometry>
        </mxCell>
        <mxCell id="IQn0PTWsaWLpdurC73Lp-231" value="" style="endArrow=none;html=1;rounded=0;strokeWidth=2;" edge="1" parent="IQn0PTWsaWLpdurC73Lp-229">
          <mxGeometry width="50" height="50" relative="1" as="geometry">
            <mxPoint y="8" as="sourcePoint" />
            <mxPoint x="11" y="8" as="targetPoint" />
          </mxGeometry>
        </mxCell>
        <mxCell id="IQn0PTWsaWLpdurC73Lp-232" value="" style="endArrow=none;html=1;rounded=0;strokeWidth=2;" edge="1" parent="IQn0PTWsaWLpdurC73Lp-229">
          <mxGeometry width="50" height="50" relative="1" as="geometry">
            <mxPoint x="19.5" y="8" as="sourcePoint" />
            <mxPoint x="30.5" y="8" as="targetPoint" />
          </mxGeometry>
        </mxCell>
        <mxCell id="IQn0PTWsaWLpdurC73Lp-233" value="" style="group;strokeWidth=2;" vertex="1" connectable="0" parent="1">
          <mxGeometry x="284" y="55" width="30.5" height="8.25" as="geometry" />
        </mxCell>
        <mxCell id="IQn0PTWsaWLpdurC73Lp-234" value="" style="endArrow=none;html=1;rounded=0;strokeWidth=2;" edge="1" parent="IQn0PTWsaWLpdurC73Lp-233">
          <mxGeometry width="50" height="50" relative="1" as="geometry">
            <mxPoint x="10" y="8.25" as="sourcePoint" />
            <mxPoint x="20" as="targetPoint" />
          </mxGeometry>
        </mxCell>
        <mxCell id="IQn0PTWsaWLpdurC73Lp-235" value="" style="endArrow=none;html=1;rounded=0;strokeWidth=2;" edge="1" parent="IQn0PTWsaWLpdurC73Lp-233">
          <mxGeometry width="50" height="50" relative="1" as="geometry">
            <mxPoint y="8" as="sourcePoint" />
            <mxPoint x="11" y="8" as="targetPoint" />
          </mxGeometry>
        </mxCell>
        <mxCell id="IQn0PTWsaWLpdurC73Lp-236" value="" style="endArrow=none;html=1;rounded=0;strokeWidth=2;" edge="1" parent="IQn0PTWsaWLpdurC73Lp-233">
          <mxGeometry width="50" height="50" relative="1" as="geometry">
            <mxPoint x="19.5" y="8" as="sourcePoint" />
            <mxPoint x="30.5" y="8" as="targetPoint" />
          </mxGeometry>
        </mxCell>
        <mxCell id="IQn0PTWsaWLpdurC73Lp-237" value="" style="group;strokeWidth=2;" vertex="1" connectable="0" parent="1">
          <mxGeometry x="364" y="55" width="30.5" height="8.25" as="geometry" />
        </mxCell>
        <mxCell id="IQn0PTWsaWLpdurC73Lp-238" value="" style="endArrow=none;html=1;rounded=0;strokeWidth=2;" edge="1" parent="IQn0PTWsaWLpdurC73Lp-237">
          <mxGeometry width="50" height="50" relative="1" as="geometry">
            <mxPoint x="10" y="8.25" as="sourcePoint" />
            <mxPoint x="20" as="targetPoint" />
          </mxGeometry>
        </mxCell>
        <mxCell id="IQn0PTWsaWLpdurC73Lp-239" value="" style="endArrow=none;html=1;rounded=0;strokeWidth=2;" edge="1" parent="IQn0PTWsaWLpdurC73Lp-237">
          <mxGeometry width="50" height="50" relative="1" as="geometry">
            <mxPoint y="8" as="sourcePoint" />
            <mxPoint x="11" y="8" as="targetPoint" />
          </mxGeometry>
        </mxCell>
        <mxCell id="IQn0PTWsaWLpdurC73Lp-240" value="" style="endArrow=none;html=1;rounded=0;strokeWidth=2;" edge="1" parent="IQn0PTWsaWLpdurC73Lp-237">
          <mxGeometry width="50" height="50" relative="1" as="geometry">
            <mxPoint x="19.5" y="8" as="sourcePoint" />
            <mxPoint x="30.5" y="8" as="targetPoint" />
          </mxGeometry>
        </mxCell>
        <mxCell id="IQn0PTWsaWLpdurC73Lp-241" value="" style="group;strokeWidth=2;" vertex="1" connectable="0" parent="1">
          <mxGeometry x="124" y="134" width="30.5" height="8.25" as="geometry" />
        </mxCell>
        <mxCell id="IQn0PTWsaWLpdurC73Lp-242" value="" style="endArrow=none;html=1;rounded=0;strokeWidth=2;" edge="1" parent="IQn0PTWsaWLpdurC73Lp-241">
          <mxGeometry width="50" height="50" relative="1" as="geometry">
            <mxPoint x="10" y="8.25" as="sourcePoint" />
            <mxPoint x="20" as="targetPoint" />
          </mxGeometry>
        </mxCell>
        <mxCell id="IQn0PTWsaWLpdurC73Lp-243" value="" style="endArrow=none;html=1;rounded=0;strokeWidth=2;" edge="1" parent="IQn0PTWsaWLpdurC73Lp-241">
          <mxGeometry width="50" height="50" relative="1" as="geometry">
            <mxPoint y="8" as="sourcePoint" />
            <mxPoint x="11" y="8" as="targetPoint" />
          </mxGeometry>
        </mxCell>
        <mxCell id="IQn0PTWsaWLpdurC73Lp-244" value="" style="endArrow=none;html=1;rounded=0;strokeWidth=2;" edge="1" parent="IQn0PTWsaWLpdurC73Lp-241">
          <mxGeometry width="50" height="50" relative="1" as="geometry">
            <mxPoint x="19.5" y="8" as="sourcePoint" />
            <mxPoint x="30.5" y="8" as="targetPoint" />
          </mxGeometry>
        </mxCell>
        <mxCell id="IQn0PTWsaWLpdurC73Lp-245" value="" style="group;strokeWidth=2;" vertex="1" connectable="0" parent="1">
          <mxGeometry x="204" y="134" width="30.5" height="8.25" as="geometry" />
        </mxCell>
        <mxCell id="IQn0PTWsaWLpdurC73Lp-246" value="" style="endArrow=none;html=1;rounded=0;strokeWidth=2;" edge="1" parent="IQn0PTWsaWLpdurC73Lp-245">
          <mxGeometry width="50" height="50" relative="1" as="geometry">
            <mxPoint x="10" y="8.25" as="sourcePoint" />
            <mxPoint x="20" as="targetPoint" />
          </mxGeometry>
        </mxCell>
        <mxCell id="IQn0PTWsaWLpdurC73Lp-247" value="" style="endArrow=none;html=1;rounded=0;strokeWidth=2;" edge="1" parent="IQn0PTWsaWLpdurC73Lp-245">
          <mxGeometry width="50" height="50" relative="1" as="geometry">
            <mxPoint y="8" as="sourcePoint" />
            <mxPoint x="11" y="8" as="targetPoint" />
          </mxGeometry>
        </mxCell>
        <mxCell id="IQn0PTWsaWLpdurC73Lp-248" value="" style="endArrow=none;html=1;rounded=0;strokeWidth=2;" edge="1" parent="IQn0PTWsaWLpdurC73Lp-245">
          <mxGeometry width="50" height="50" relative="1" as="geometry">
            <mxPoint x="19.5" y="8" as="sourcePoint" />
            <mxPoint x="30.5" y="8" as="targetPoint" />
          </mxGeometry>
        </mxCell>
        <mxCell id="IQn0PTWsaWLpdurC73Lp-249" value="" style="group;strokeWidth=2;" vertex="1" connectable="0" parent="1">
          <mxGeometry x="284" y="134" width="30.5" height="8.25" as="geometry" />
        </mxCell>
        <mxCell id="IQn0PTWsaWLpdurC73Lp-250" value="" style="endArrow=none;html=1;rounded=0;strokeWidth=2;" edge="1" parent="IQn0PTWsaWLpdurC73Lp-249">
          <mxGeometry width="50" height="50" relative="1" as="geometry">
            <mxPoint x="10" y="8.25" as="sourcePoint" />
            <mxPoint x="20" as="targetPoint" />
          </mxGeometry>
        </mxCell>
        <mxCell id="IQn0PTWsaWLpdurC73Lp-251" value="" style="endArrow=none;html=1;rounded=0;strokeWidth=2;" edge="1" parent="IQn0PTWsaWLpdurC73Lp-249">
          <mxGeometry width="50" height="50" relative="1" as="geometry">
            <mxPoint y="8" as="sourcePoint" />
            <mxPoint x="11" y="8" as="targetPoint" />
          </mxGeometry>
        </mxCell>
        <mxCell id="IQn0PTWsaWLpdurC73Lp-252" value="" style="endArrow=none;html=1;rounded=0;strokeWidth=2;" edge="1" parent="IQn0PTWsaWLpdurC73Lp-249">
          <mxGeometry width="50" height="50" relative="1" as="geometry">
            <mxPoint x="19.5" y="8" as="sourcePoint" />
            <mxPoint x="30.5" y="8" as="targetPoint" />
          </mxGeometry>
        </mxCell>
        <mxCell id="IQn0PTWsaWLpdurC73Lp-253" value="" style="group;strokeWidth=2;" vertex="1" connectable="0" parent="1">
          <mxGeometry x="364" y="134" width="30.5" height="8.25" as="geometry" />
        </mxCell>
        <mxCell id="IQn0PTWsaWLpdurC73Lp-254" value="" style="endArrow=none;html=1;rounded=0;strokeWidth=2;" edge="1" parent="IQn0PTWsaWLpdurC73Lp-253">
          <mxGeometry width="50" height="50" relative="1" as="geometry">
            <mxPoint x="10" y="8.25" as="sourcePoint" />
            <mxPoint x="20" as="targetPoint" />
          </mxGeometry>
        </mxCell>
        <mxCell id="IQn0PTWsaWLpdurC73Lp-255" value="" style="endArrow=none;html=1;rounded=0;strokeWidth=2;" edge="1" parent="IQn0PTWsaWLpdurC73Lp-253">
          <mxGeometry width="50" height="50" relative="1" as="geometry">
            <mxPoint y="8" as="sourcePoint" />
            <mxPoint x="11" y="8" as="targetPoint" />
          </mxGeometry>
        </mxCell>
        <mxCell id="IQn0PTWsaWLpdurC73Lp-256" value="" style="endArrow=none;html=1;rounded=0;strokeWidth=2;" edge="1" parent="IQn0PTWsaWLpdurC73Lp-253">
          <mxGeometry width="50" height="50" relative="1" as="geometry">
            <mxPoint x="19.5" y="8" as="sourcePoint" />
            <mxPoint x="30.5" y="8" as="targetPoint" />
          </mxGeometry>
        </mxCell>
        <mxCell id="IQn0PTWsaWLpdurC73Lp-257" value="" style="group;strokeWidth=2;" vertex="1" connectable="0" parent="1">
          <mxGeometry x="364" y="216" width="30.5" height="8.25" as="geometry" />
        </mxCell>
        <mxCell id="IQn0PTWsaWLpdurC73Lp-258" value="" style="endArrow=none;html=1;rounded=0;strokeWidth=2;" edge="1" parent="IQn0PTWsaWLpdurC73Lp-257">
          <mxGeometry width="50" height="50" relative="1" as="geometry">
            <mxPoint x="10" y="8.25" as="sourcePoint" />
            <mxPoint x="20" as="targetPoint" />
          </mxGeometry>
        </mxCell>
        <mxCell id="IQn0PTWsaWLpdurC73Lp-259" value="" style="endArrow=none;html=1;rounded=0;strokeWidth=2;" edge="1" parent="IQn0PTWsaWLpdurC73Lp-257">
          <mxGeometry width="50" height="50" relative="1" as="geometry">
            <mxPoint y="8" as="sourcePoint" />
            <mxPoint x="11" y="8" as="targetPoint" />
          </mxGeometry>
        </mxCell>
        <mxCell id="IQn0PTWsaWLpdurC73Lp-260" value="" style="endArrow=none;html=1;rounded=0;strokeWidth=2;" edge="1" parent="IQn0PTWsaWLpdurC73Lp-257">
          <mxGeometry width="50" height="50" relative="1" as="geometry">
            <mxPoint x="19.5" y="8" as="sourcePoint" />
            <mxPoint x="30.5" y="8" as="targetPoint" />
          </mxGeometry>
        </mxCell>
        <mxCell id="IQn0PTWsaWLpdurC73Lp-261" value="" style="group;strokeWidth=2;" vertex="1" connectable="0" parent="1">
          <mxGeometry x="364" y="294" width="30.5" height="8.25" as="geometry" />
        </mxCell>
        <mxCell id="IQn0PTWsaWLpdurC73Lp-262" value="" style="endArrow=none;html=1;rounded=0;strokeWidth=2;" edge="1" parent="IQn0PTWsaWLpdurC73Lp-261">
          <mxGeometry width="50" height="50" relative="1" as="geometry">
            <mxPoint x="10" y="8.25" as="sourcePoint" />
            <mxPoint x="20" as="targetPoint" />
          </mxGeometry>
        </mxCell>
        <mxCell id="IQn0PTWsaWLpdurC73Lp-263" value="" style="endArrow=none;html=1;rounded=0;strokeWidth=2;" edge="1" parent="IQn0PTWsaWLpdurC73Lp-261">
          <mxGeometry width="50" height="50" relative="1" as="geometry">
            <mxPoint y="8" as="sourcePoint" />
            <mxPoint x="11" y="8" as="targetPoint" />
          </mxGeometry>
        </mxCell>
        <mxCell id="IQn0PTWsaWLpdurC73Lp-264" value="" style="endArrow=none;html=1;rounded=0;strokeWidth=2;" edge="1" parent="IQn0PTWsaWLpdurC73Lp-261">
          <mxGeometry width="50" height="50" relative="1" as="geometry">
            <mxPoint x="19.5" y="8" as="sourcePoint" />
            <mxPoint x="30.5" y="8" as="targetPoint" />
          </mxGeometry>
        </mxCell>
        <mxCell id="IQn0PTWsaWLpdurC73Lp-265" value="" style="group;strokeWidth=2;" vertex="1" connectable="0" parent="1">
          <mxGeometry x="284" y="294" width="30.5" height="8.25" as="geometry" />
        </mxCell>
        <mxCell id="IQn0PTWsaWLpdurC73Lp-266" value="" style="endArrow=none;html=1;rounded=0;strokeWidth=2;" edge="1" parent="IQn0PTWsaWLpdurC73Lp-265">
          <mxGeometry width="50" height="50" relative="1" as="geometry">
            <mxPoint x="10" y="8.25" as="sourcePoint" />
            <mxPoint x="20" as="targetPoint" />
          </mxGeometry>
        </mxCell>
        <mxCell id="IQn0PTWsaWLpdurC73Lp-267" value="" style="endArrow=none;html=1;rounded=0;strokeWidth=2;" edge="1" parent="IQn0PTWsaWLpdurC73Lp-265">
          <mxGeometry width="50" height="50" relative="1" as="geometry">
            <mxPoint y="8" as="sourcePoint" />
            <mxPoint x="11" y="8" as="targetPoint" />
          </mxGeometry>
        </mxCell>
        <mxCell id="IQn0PTWsaWLpdurC73Lp-268" value="" style="endArrow=none;html=1;rounded=0;strokeWidth=2;" edge="1" parent="IQn0PTWsaWLpdurC73Lp-265">
          <mxGeometry width="50" height="50" relative="1" as="geometry">
            <mxPoint x="19.5" y="8" as="sourcePoint" />
            <mxPoint x="30.5" y="8" as="targetPoint" />
          </mxGeometry>
        </mxCell>
        <mxCell id="IQn0PTWsaWLpdurC73Lp-269" value="" style="group;strokeWidth=2;" vertex="1" connectable="0" parent="1">
          <mxGeometry x="204" y="294" width="30.5" height="8.25" as="geometry" />
        </mxCell>
        <mxCell id="IQn0PTWsaWLpdurC73Lp-270" value="" style="endArrow=none;html=1;rounded=0;strokeWidth=2;" edge="1" parent="IQn0PTWsaWLpdurC73Lp-269">
          <mxGeometry width="50" height="50" relative="1" as="geometry">
            <mxPoint x="10" y="8.25" as="sourcePoint" />
            <mxPoint x="20" as="targetPoint" />
          </mxGeometry>
        </mxCell>
        <mxCell id="IQn0PTWsaWLpdurC73Lp-271" value="" style="endArrow=none;html=1;rounded=0;strokeWidth=2;" edge="1" parent="IQn0PTWsaWLpdurC73Lp-269">
          <mxGeometry width="50" height="50" relative="1" as="geometry">
            <mxPoint y="8" as="sourcePoint" />
            <mxPoint x="11" y="8" as="targetPoint" />
          </mxGeometry>
        </mxCell>
        <mxCell id="IQn0PTWsaWLpdurC73Lp-272" value="" style="endArrow=none;html=1;rounded=0;strokeWidth=2;" edge="1" parent="IQn0PTWsaWLpdurC73Lp-269">
          <mxGeometry width="50" height="50" relative="1" as="geometry">
            <mxPoint x="19.5" y="8" as="sourcePoint" />
            <mxPoint x="30.5" y="8" as="targetPoint" />
          </mxGeometry>
        </mxCell>
        <mxCell id="IQn0PTWsaWLpdurC73Lp-273" value="" style="group;strokeWidth=2;" vertex="1" connectable="0" parent="1">
          <mxGeometry x="124" y="294" width="30.5" height="8.25" as="geometry" />
        </mxCell>
        <mxCell id="IQn0PTWsaWLpdurC73Lp-274" value="" style="endArrow=none;html=1;rounded=0;strokeWidth=2;" edge="1" parent="IQn0PTWsaWLpdurC73Lp-273">
          <mxGeometry width="50" height="50" relative="1" as="geometry">
            <mxPoint x="10" y="8.25" as="sourcePoint" />
            <mxPoint x="20" as="targetPoint" />
          </mxGeometry>
        </mxCell>
        <mxCell id="IQn0PTWsaWLpdurC73Lp-275" value="" style="endArrow=none;html=1;rounded=0;strokeWidth=2;" edge="1" parent="IQn0PTWsaWLpdurC73Lp-273">
          <mxGeometry width="50" height="50" relative="1" as="geometry">
            <mxPoint y="8" as="sourcePoint" />
            <mxPoint x="11" y="8" as="targetPoint" />
          </mxGeometry>
        </mxCell>
        <mxCell id="IQn0PTWsaWLpdurC73Lp-276" value="" style="endArrow=none;html=1;rounded=0;strokeWidth=2;" edge="1" parent="IQn0PTWsaWLpdurC73Lp-273">
          <mxGeometry width="50" height="50" relative="1" as="geometry">
            <mxPoint x="19.5" y="8" as="sourcePoint" />
            <mxPoint x="30.5" y="8" as="targetPoint" />
          </mxGeometry>
        </mxCell>
        <mxCell id="IQn0PTWsaWLpdurC73Lp-277" value="" style="group;strokeWidth=2;" vertex="1" connectable="0" parent="1">
          <mxGeometry x="284" y="216.5" width="30.5" height="8.25" as="geometry" />
        </mxCell>
        <mxCell id="IQn0PTWsaWLpdurC73Lp-278" value="" style="endArrow=none;html=1;rounded=0;strokeWidth=2;" edge="1" parent="IQn0PTWsaWLpdurC73Lp-277">
          <mxGeometry width="50" height="50" relative="1" as="geometry">
            <mxPoint x="10" y="8.25" as="sourcePoint" />
            <mxPoint x="20" as="targetPoint" />
          </mxGeometry>
        </mxCell>
        <mxCell id="IQn0PTWsaWLpdurC73Lp-279" value="" style="endArrow=none;html=1;rounded=0;strokeWidth=2;" edge="1" parent="IQn0PTWsaWLpdurC73Lp-277">
          <mxGeometry width="50" height="50" relative="1" as="geometry">
            <mxPoint y="8" as="sourcePoint" />
            <mxPoint x="11" y="8" as="targetPoint" />
          </mxGeometry>
        </mxCell>
        <mxCell id="IQn0PTWsaWLpdurC73Lp-280" value="" style="endArrow=none;html=1;rounded=0;strokeWidth=2;" edge="1" parent="IQn0PTWsaWLpdurC73Lp-277">
          <mxGeometry width="50" height="50" relative="1" as="geometry">
            <mxPoint x="19.5" y="8" as="sourcePoint" />
            <mxPoint x="30.5" y="8" as="targetPoint" />
          </mxGeometry>
        </mxCell>
        <mxCell id="IQn0PTWsaWLpdurC73Lp-281" value="" style="group;strokeWidth=2;" vertex="1" connectable="0" parent="1">
          <mxGeometry x="204" y="216" width="30.5" height="8.25" as="geometry" />
        </mxCell>
        <mxCell id="IQn0PTWsaWLpdurC73Lp-282" value="" style="endArrow=none;html=1;rounded=0;strokeWidth=2;" edge="1" parent="IQn0PTWsaWLpdurC73Lp-281">
          <mxGeometry width="50" height="50" relative="1" as="geometry">
            <mxPoint x="10" y="8.25" as="sourcePoint" />
            <mxPoint x="20" as="targetPoint" />
          </mxGeometry>
        </mxCell>
        <mxCell id="IQn0PTWsaWLpdurC73Lp-283" value="" style="endArrow=none;html=1;rounded=0;strokeWidth=2;" edge="1" parent="IQn0PTWsaWLpdurC73Lp-281">
          <mxGeometry width="50" height="50" relative="1" as="geometry">
            <mxPoint y="8" as="sourcePoint" />
            <mxPoint x="11" y="8" as="targetPoint" />
          </mxGeometry>
        </mxCell>
        <mxCell id="IQn0PTWsaWLpdurC73Lp-284" value="" style="endArrow=none;html=1;rounded=0;strokeWidth=2;" edge="1" parent="IQn0PTWsaWLpdurC73Lp-281">
          <mxGeometry width="50" height="50" relative="1" as="geometry">
            <mxPoint x="19.5" y="8" as="sourcePoint" />
            <mxPoint x="30.5" y="8" as="targetPoint" />
          </mxGeometry>
        </mxCell>
        <mxCell id="IQn0PTWsaWLpdurC73Lp-285" value="" style="group;strokeWidth=2;" vertex="1" connectable="0" parent="1">
          <mxGeometry x="125" y="216.5" width="30.5" height="8.25" as="geometry" />
        </mxCell>
        <mxCell id="IQn0PTWsaWLpdurC73Lp-286" value="" style="endArrow=none;html=1;rounded=0;strokeWidth=2;" edge="1" parent="IQn0PTWsaWLpdurC73Lp-285">
          <mxGeometry width="50" height="50" relative="1" as="geometry">
            <mxPoint x="10" y="8.25" as="sourcePoint" />
            <mxPoint x="20" as="targetPoint" />
          </mxGeometry>
        </mxCell>
        <mxCell id="IQn0PTWsaWLpdurC73Lp-287" value="" style="endArrow=none;html=1;rounded=0;strokeWidth=2;" edge="1" parent="IQn0PTWsaWLpdurC73Lp-285">
          <mxGeometry width="50" height="50" relative="1" as="geometry">
            <mxPoint y="8" as="sourcePoint" />
            <mxPoint x="11" y="8" as="targetPoint" />
          </mxGeometry>
        </mxCell>
        <mxCell id="IQn0PTWsaWLpdurC73Lp-288" value="" style="endArrow=none;html=1;rounded=0;strokeWidth=2;" edge="1" parent="IQn0PTWsaWLpdurC73Lp-285">
          <mxGeometry width="50" height="50" relative="1" as="geometry">
            <mxPoint x="19.5" y="8" as="sourcePoint" />
            <mxPoint x="30.5" y="8" as="targetPoint" />
          </mxGeometry>
        </mxCell>
        <mxCell id="IQn0PTWsaWLpdurC73Lp-289" value="" style="shape=link;html=1;rounded=0;exitX=1;exitY=0.5;exitDx=0;exitDy=0;entryX=0;entryY=0.5;entryDx=0;entryDy=0;strokeWidth=2;" edge="1" parent="1" source="IQn0PTWsaWLpdurC73Lp-12" target="IQn0PTWsaWLpdurC73Lp-203">
          <mxGeometry width="100" relative="1" as="geometry">
            <mxPoint x="300" y="190" as="sourcePoint" />
            <mxPoint x="120" y="299" as="targetPoint" />
          </mxGeometry>
        </mxCell>
        <mxCell id="IQn0PTWsaWLpdurC73Lp-290" value="" style="shape=link;html=1;rounded=0;exitX=1;exitY=0.5;exitDx=0;exitDy=0;entryX=0;entryY=0.5;entryDx=0;entryDy=0;strokeWidth=2;" edge="1" parent="1" source="IQn0PTWsaWLpdurC73Lp-11" target="IQn0PTWsaWLpdurC73Lp-103">
          <mxGeometry width="100" relative="1" as="geometry">
            <mxPoint x="100" y="250" as="sourcePoint" />
            <mxPoint x="120" y="220" as="targetPoint" />
          </mxGeometry>
        </mxCell>
        <mxCell id="IQn0PTWsaWLpdurC73Lp-291" value="" style="shape=link;html=1;rounded=0;exitX=1;exitY=0.5;exitDx=0;exitDy=0;entryX=0;entryY=0.5;entryDx=0;entryDy=0;strokeWidth=2;" edge="1" parent="1" source="IQn0PTWsaWLpdurC73Lp-10" target="IQn0PTWsaWLpdurC73Lp-201">
          <mxGeometry width="100" relative="1" as="geometry">
            <mxPoint x="113" y="143.25" as="sourcePoint" />
            <mxPoint x="138" y="142.25" as="targetPoint" />
          </mxGeometry>
        </mxCell>
        <mxCell id="IQn0PTWsaWLpdurC73Lp-292" value="" style="shape=link;html=1;rounded=0;exitX=1;exitY=0.5;exitDx=0;exitDy=0;entryX=0;entryY=0.5;entryDx=0;entryDy=0;strokeWidth=2;" edge="1" parent="1" source="IQn0PTWsaWLpdurC73Lp-4" target="IQn0PTWsaWLpdurC73Lp-202">
          <mxGeometry width="100" relative="1" as="geometry">
            <mxPoint x="110" y="85" as="sourcePoint" />
            <mxPoint x="135" y="85" as="targetPoint" />
          </mxGeometry>
        </mxCell>
        <mxCell id="IQn0PTWsaWLpdurC73Lp-293" value="" style="shape=link;html=1;rounded=0;exitX=0.5;exitY=0;exitDx=0;exitDy=0;entryX=0.5;entryY=1;entryDx=0;entryDy=0;strokeWidth=2;" edge="1" parent="1" source="IQn0PTWsaWLpdurC73Lp-20" target="IQn0PTWsaWLpdurC73Lp-203">
          <mxGeometry width="100" relative="1" as="geometry">
            <mxPoint x="110" y="310" as="sourcePoint" />
            <mxPoint x="135" y="310" as="targetPoint" />
          </mxGeometry>
        </mxCell>
        <mxCell id="IQn0PTWsaWLpdurC73Lp-295" value="" style="shape=link;html=1;rounded=0;exitX=0.5;exitY=0;exitDx=0;exitDy=0;entryX=0.5;entryY=1;entryDx=0;entryDy=0;strokeWidth=2;" edge="1" parent="1">
          <mxGeometry width="100" relative="1" as="geometry">
            <mxPoint x="220.16" y="330" as="sourcePoint" />
            <mxPoint x="220.16" y="314" as="targetPoint" />
          </mxGeometry>
        </mxCell>
        <mxCell id="IQn0PTWsaWLpdurC73Lp-296" value="" style="shape=link;html=1;rounded=0;exitX=0.5;exitY=0;exitDx=0;exitDy=0;entryX=0.5;entryY=1;entryDx=0;entryDy=0;strokeWidth=2;" edge="1" parent="1">
          <mxGeometry width="100" relative="1" as="geometry">
            <mxPoint x="300.90999999999997" y="330" as="sourcePoint" />
            <mxPoint x="300.90999999999997" y="314" as="targetPoint" />
          </mxGeometry>
        </mxCell>
        <mxCell id="IQn0PTWsaWLpdurC73Lp-297" value="" style="shape=link;html=1;rounded=0;exitX=0.5;exitY=0;exitDx=0;exitDy=0;entryX=0.5;entryY=1;entryDx=0;entryDy=0;strokeWidth=2;" edge="1" parent="1">
          <mxGeometry width="100" relative="1" as="geometry">
            <mxPoint x="379.90999999999997" y="329.75" as="sourcePoint" />
            <mxPoint x="379.90999999999997" y="313.75" as="targetPoint" />
          </mxGeometry>
        </mxCell>
      </root>
    </mxGraphModel>
  </diagram>
</mxfile>
